Coordinates
version=1
nRows=30
nColumns=33
inDegrees=yes

Units are S.I. units (second, meters, Newtons, ...)
Angles are in degrees.

endheader
time	ground_thorax_rot_x	ground_thorax_rot_y	ground_thorax_rot_z	ground_thorax_tx	ground_thorax_ty	ground_thorax_tz	clav_prot_r	clav_elev_r	scapula_abduction_r	scapula_elevation_r	scapula_upward_rot_r	scapula_winging_r	shoulder_elv_r	plane_of_elev_r	axial_rot_r	elbow_flexion_r	pro_sup_r	wrist_flex_r	wrist_dev_r	clav_prot_l	clav_elev_l	scapula_abduction_l	scapula_elevation_l	scapula_upward_rot_l	scapula_winging_l	shoulder_elv_l	plane_of_elev_l	axial_rot_l	elbow_flexion_l	pro_sup_l	wrist_flex_l	wrist_dev_l	
1.8500	1.733446	4.832657	-2.681508	-0.156521	1.008098	0.007655	-20.850124	-8.711712	-25.933455	-6.026246	11.932987	1.432925	68.530882	-50.666339	62.532555	86.285852	20.514553	33.081279	-4.648703	-1.686444	-2.564334	0.762508	-5.493460	-4.742277	-0.567155	46.406737	-51.579839	-17.282562	88.647321	18.580024	-5.416646	-20.517634	
1.8600	1.679825	4.861902	-2.648954	-0.156581	1.007830	0.007589	-20.863641	-8.729694	-25.992180	-6.020842	11.865170	1.454915	68.414316	-50.649562	62.461329	86.329340	20.501808	32.699032	-4.648794	-1.652085	-2.400578	0.667228	-5.569538	-4.561139	-0.482628	46.205262	-51.526756	-17.217150	88.657512	18.622863	-5.079897	-20.417466	
1.8700	1.600904	4.903904	-2.608540	-0.156688	1.007560	0.007511	-20.882768	-8.752039	-26.073444	-6.011789	11.773717	1.483892	68.256827	-50.624223	62.359270	86.389401	20.483678	32.165747	-4.650038	-1.604375	-2.170089	0.534461	-5.677288	-4.307188	-0.364063	45.925423	-51.455486	-17.122689	88.670501	18.682719	-4.609891	-20.277171	
1.8800	1.498606	4.957518	-2.563910	-0.156818	1.007290	0.007397	-20.906184	-8.776186	-26.169048	-6.000700	11.669770	1.516418	68.075572	-50.588573	62.230107	86.461612	20.460948	31.524542	-4.653996	-1.547252	-1.890848	0.374389	-5.807834	-3.999457	-0.220777	45.590208	-51.372752	-17.003567	88.684296	18.754908	-4.044310	-20.107513	
1.8900	1.404480	5.008075	-2.515186	-0.156956	1.007065	0.007276	-20.928144	-8.803061	-26.253951	-5.996411	11.578817	1.547406	67.910930	-50.550061	62.104436	86.531511	20.438865	30.941374	-4.660068	-1.494817	-1.639645	0.226509	-5.923471	-3.718189	-0.089945	45.283117	-51.293937	-16.893482	88.698308	18.820741	-3.529268	-19.952748	
1.9000	1.322393	5.053789	-2.461602	-0.157106	1.006893	0.007153	-20.948271	-8.834113	-26.325456	-6.001121	11.503805	1.576865	67.766523	-50.508757	61.983571	86.598332	20.417480	30.434055	-4.668546	-1.448365	-1.425673	0.094510	-6.019337	-3.472066	0.024385	45.013122	-51.219868	-16.795934	88.712826	18.878031	-3.080642	-19.817361	
1.9100	1.274569	5.082783	-2.408514	-0.157232	1.006790	0.007047	-20.962328	-8.868160	-26.365452	-6.019754	11.463568	1.600243	67.673727	-50.471415	61.890428	86.649719	20.400400	30.127176	-4.678633	-1.418477	-1.306229	0.008267	-6.067554	-3.321749	0.094077	44.844741	-51.163520	-16.735521	88.726478	18.912316	-2.808838	-19.734048	
1.9200	1.255954	5.097541	-2.356833	-0.157345	1.006747	0.006961	-20.971597	-8.906988	-26.379966	-6.051521	11.450917	1.619912	67.620669	-50.436615	61.816251	86.689217	20.385348	29.984252	-4.689930	-1.401731	-1.266855	-0.041693	-6.074474	-3.250262	0.126983	44.761103	-51.119883	-16.704905	88.740153	18.926788	-2.682992	-19.692299	
1.9300	1.259975	5.099699	-2.311816	-0.157430	1.006740	0.006890	-20.977100	-8.950081	-26.374505	-6.094045	11.459675	1.637059	67.598594	-50.403850	61.753604	86.718275	20.370004	29.974500	-4.701510	-1.395273	-1.295402	-0.063139	-6.045611	-3.243911	0.129599	44.749349	-51.085937	-16.697229	88.753797	18.923662	-2.677784	-19.682679	
1.9400	1.262208	5.101888	-2.277691	-0.157511	1.006738	0.006823	-20.984157	-9.002016	-26.372319	-6.143281	11.464186	1.659363	67.565411	-50.365716	61.666940	86.749846	20.345884	29.952274	-4.712903	-1.385943	-1.331904	-0.092868	-6.008229	-3.234642	0.133543	44.739844	-51.044722	-16.681300	88.769680	18.916589	-2.668875	-19.663584	
1.9500	1.261442	5.104671	-2.258892	-0.157580	1.006734	0.006759	-20.992720	-9.063535	-26.374728	-6.199114	11.461872	1.687807	67.517201	-50.321056	61.550533	86.783208	20.309891	29.911944	-4.721837	-1.372830	-1.378077	-0.133184	-5.960471	-3.221861	0.139268	44.733650	-50.994839	-16.654467	88.788419	18.903663	-2.654523	-19.631032	
1.9600	1.258804	5.112775	-2.281613	-0.157642	1.006744	0.006704	-21.006452	-9.152302	-26.390992	-6.274076	11.441269	1.733065	67.431298	-50.263555	61.358765	86.819114	20.245681	29.829308	-4.728532	-1.351394	-1.448846	-0.197011	-5.887454	-3.202814	0.148255	44.731243	-50.926845	-16.599702	88.813969	18.877890	-2.627820	-19.567201	
1.9700	1.252626	5.125583	-2.333879	-0.157705	1.006761	0.006655	-21.023521	-9.260399	-26.418891	-6.361333	11.403769	1.791254	67.310569	-50.190965	61.101474	86.857405	20.153682	29.702604	-4.724983	-1.321395	-1.539120	-0.282960	-5.794503	-3.178984	0.160827	44.732823	-50.843200	-16.521196	88.846973	18.837619	-2.586972	-19.470934	
1.9800	1.242089	5.143381	-2.406505	-0.157777	1.006778	0.006613	-21.042163	-9.379032	-26.459048	-6.451747	11.346380	1.858923	67.149612	-50.095629	60.775720	86.899065	20.025796	29.514885	-4.693671	-1.279413	-1.644147	-0.394846	-5.687295	-3.153463	0.178338	44.738568	-50.746321	-16.420053	88.890618	18.775534	-2.524088	-19.329832	
1.9900	1.225077	5.161726	-2.460224	-0.157869	1.006775	0.006572	-21.056703	-9.481806	-26.501856	-6.524027	11.278648	1.921799	66.966246	-49.975131	60.426853	86.944451	19.870980	29.274025	-4.614916	-1.227142	-1.743943	-0.522464	-5.586623	-3.131974	0.200472	44.748345	-50.646434	-16.315137	88.944078	18.690804	-2.438017	-19.149789	
2.0000	1.198446	5.183783	-2.500257	-0.158005	1.006741	0.006543	-21.065466	-9.552452	-26.562635	-6.554922	11.175783	1.977784	66.715440	-49.796087	59.989754	86.999091	19.638780	28.887119	-4.423081	-1.145552	-1.837339	-0.695986	-5.497769	-3.124561	0.234437	44.762558	-50.543158	-16.191967	89.023656	18.547702	-2.290544	-18.862377	
2.0100	1.162385	5.204660	-2.498655	-0.158182	1.006665	0.006519	-21.066788	-9.578702	-26.631610	-6.538458	11.053815	2.017513	66.423171	-49.564717	59.515680	87.061639	19.349687	28.384746	-4.115852	-1.043144	-1.909879	-0.895448	-5.435074	-3.133723	0.276761	44.781464	-50.439327	-16.067143	89.122816	18.352249	-2.089551	-18.489467	
2.0200	1.119044	5.224484	-2.465403	-0.158392	1.006558	0.006498	-21.064135	-9.572349	-26.710138	-6.486662	10.915923	2.045490	66.090850	-49.283703	59.001020	87.131662	19.008050	27.775790	-3.700479	-0.923739	-1.966709	-1.115435	-5.393442	-3.158631	0.325143	44.804808	-50.327686	-15.937512	89.237990	18.105859	-1.837878	-18.036718	
2.0300	1.070996	5.238155	-2.417693	-0.158608	1.006447	0.006475	-21.068002	-9.562304	-26.798327	-6.432887	10.781085	2.070371	65.735774	-48.963032	58.468214	87.205052	18.636783	27.099743	-3.185453	-0.804863	-2.013222	-1.325608	-5.367575	-3.198631	0.370254	44.835573	-50.184070	-15.801488	89.353115	17.811363	-1.545810	-17.530460	
2.0400	1.021511	5.249641	-2.385982	-0.158818	1.006351	0.006453	-21.082491	-9.571954	-26.901591	-6.396855	10.643558	2.104308	65.347707	-48.607237	57.882939	87.281167	18.234961	26.359520	-2.595683	-0.687022	-2.066913	-1.531332	-5.339180	-3.248503	0.411304	44.874010	-49.999369	-15.646070	89.466681	17.472572	-1.216568	-16.971812	
2.0500	0.974830	5.253940	-2.377617	-0.159001	1.006285	0.006423	-21.111051	-9.620772	-27.011369	-6.402302	10.520540	2.152436	64.951908	-48.230008	57.276467	87.355278	17.837241	25.608317	-1.957224	-0.587434	-2.131570	-1.702551	-5.304369	-3.307351	0.439377	44.925148	-49.756783	-15.479365	89.564053	17.097938	-0.862539	-16.395048	
2.0600	0.935024	5.253764	-2.370999	-0.159158	1.006243	0.006383	-21.145155	-9.701321	-27.110546	-6.444548	10.419816	2.210263	64.578086	-47.857700	56.689065	87.424633	17.478864	24.907778	-1.336730	-0.510351	-2.206216	-1.835213	-5.260048	-3.365558	0.454677	44.985619	-49.476703	-15.319067	89.638129	16.723183	-0.512042	-15.846616	
2.0700	0.900602	5.249006	-2.381302	-0.159298	1.006237	0.006343	-21.185973	-9.813117	-27.210623	-6.517883	10.325454	2.281150	64.189460	-47.466843	56.064162	87.487251	17.135437	24.190927	-0.682558	-0.449393	-2.294446	-1.937814	-5.206881	-3.432662	0.457634	45.061716	-49.141233	-15.156080	89.687461	16.315158	-0.126887	-15.273616	
2.0800	0.874092	5.246620	-2.382486	-0.159438	1.006258	0.006309	-21.222552	-9.933137	-27.302646	-6.598259	10.230252	2.356803	63.791764	-47.071050	55.410235	87.540808	16.812065	23.468987	-0.034357	-0.394530	-2.394808	-2.031192	-5.143169	-3.501269	0.455200	45.144947	-48.779278	-14.998809	89.707720	15.900794	0.278920	-14.687735	
2.0900	0.854859	5.246528	-2.392744	-0.159575	1.006308	0.006282	-21.259272	-10.067702	-27.396027	-6.689793	10.128368	2.441244	63.361277	-46.655603	54.690294	87.581329	16.493408	22.701288	0.641210	-0.344820	-2.510789	-2.115794	-5.067807	-3.576356	0.446256	45.236158	-48.373288	-14.834587	89.701174	15.460866	0.725823	-14.059758	
2.1000	0.840869	5.251108	-2.382878	-0.159710	1.006358	0.006257	-21.288354	-10.199289	-27.476148	-6.778872	10.028567	2.524591	62.920852	-46.239839	53.948608	87.606651	16.198569	21.925327	1.316625	-0.300883	-2.629001	-2.190028	-4.990580	-3.651969	0.433592	45.332880	-47.942241	-14.677897	89.668102	15.021939	1.195441	-13.422238	
2.1100	0.827561	5.258215	-2.370614	-0.159856	1.006411	0.006237	-21.312327	-10.331302	-27.553537	-6.864848	9.919122	2.610951	62.439163	-45.794236	53.146890	87.608755	15.889193	21.075209	2.057250	-0.253401	-2.750031	-2.266241	-4.915804	-3.739692	0.419076	45.437638	-47.469844	-14.513859	89.615229	14.551712	1.715280	-12.727379	
2.1200	0.813843	5.268252	-2.337413	-0.160016	1.006432	0.006215	-21.323818	-10.448964	-27.615661	-6.935492	9.805392	2.692426	61.933165	-45.327276	52.315213	87.584657	15.568746	20.173878	2.855749	-0.201362	-2.863162	-2.343159	-4.854221	-3.841794	0.403980	45.551650	-46.964731	-14.350284	89.547875	14.063056	2.274526	-11.993579	
2.1300	0.802729	5.279546	-2.296737	-0.160185	1.006441	0.006186	-21.326050	-10.568353	-27.663810	-7.006407	9.689174	2.776302	61.409944	-44.838326	51.461175	87.523496	15.232524	19.238196	3.694837	-0.146049	-2.980052	-2.420580	-4.795519	-3.959073	0.385875	45.670463	-46.424067	-14.179077	89.458147	13.563267	2.854831	-11.232972	
2.1400	0.789926	5.292966	-2.244847	-0.160364	1.006406	0.006157	-21.316430	-10.673894	-27.700637	-7.060662	9.563328	2.856608	60.853324	-44.316537	50.562703	87.427487	14.858443	18.233251	4.616207	-0.084917	-3.089858	-2.496478	-4.754308	-4.102978	0.364712	45.806416	-45.835189	-13.999353	89.352686	13.032399	3.480939	-10.417505	
